<svg width="20" height="20" viewBox="0 0 20 20" fill="none" xmlns="http://www.w3.org/2000/svg">
<path d="M16.9231 4.7915H3.07692C2.76154 4.7915 2.5 4.50817 2.5 4.1665C2.5 3.82484 2.76154 3.5415 3.07692 3.5415H16.9231C17.2385 3.5415 17.5 3.82484 17.5 4.1665C17.5 4.50817 17.2385 4.7915 16.9231 4.7915Z" fill="white"/>
<path d="M16.9231 10.625H3.07692C2.76154 10.625 2.5 10.3417 2.5 10C2.5 9.65833 2.76154 9.375 3.07692 9.375H16.9231C17.2385 9.375 17.5 9.65833 17.5 10C17.5 10.3417 17.2385 10.625 16.9231 10.625Z" fill="white"/>
<path d="M16.9231 16.4585H3.07692C2.76154 16.4585 2.5 16.1752 2.5 15.8335C2.5 15.4918 2.76154 15.2085 3.07692 15.2085H16.9231C17.2385 15.2085 17.5 15.4918 17.5 15.8335C17.5 16.1752 17.2385 16.4585 16.9231 16.4585Z" fill="white"/>
</svg>
